<?xml version="1.0" encoding="UTF-8"?>
<svg version="1.1" xmlns="http://www.w3.org/2000/svg" width="100" height="100">
<path d="M0 0 C1.38250026 0.98960498 2.75855961 1.98833521 4.125 3 C5.011875 3.598125 5.89875 4.19625 6.8125 4.8125 C16.10200622 13.59987075 20.75664735 26.05464626 21.18359375 38.62890625 C20.9572334 51.65217174 15.91558778 63.37985904 7.125 73 C-5.44553742 83.53094691 -17.45868304 85.92582209 -33.40039062 85.22216797 C-45.67092587 84.12053152 -55.65148542 76.33908591 -63.30859375 67.171875 C-71.50809486 55.80299066 -73.06804217 43.61166527 -71.875 30 C-70.2698131 21.41657545 -66.34539385 14.70941468 -60.875 8 C-60.37484375 7.36320312 -59.8746875 6.72640625 -59.359375 6.0703125 C-44.73299864 -10.55056973 -17.68540902 -11.36713076 0 0 Z M-57.62109375 11.91015625 C-66.03688623 22.46662412 -68.0635275 33.81932722 -66.875 47 C-64.52730662 57.92012808 -58.08980797 67.67857883 -48.875 74 C-37.53195898 79.99782717 -26.22216918 81.82759727 -13.55859375 79.3515625 C-2.37217952 75.62806189 6.35288747 67.46119772 11.875 57.1875 C16.92013294 46.39742535 17.16998667 35.63883818 13.5 24.3125 C8.91438169 12.82362235 0.34964457 5.28096878 -10.54296875 -0.01953125 C-26.98754968 -6.93341703 -46.01541374 -0.78599034 -57.62109375 11.91015625 Z " fill="#FFFFFF" transform="translate(75.875,11)"/>
<path d="M0 0 C5.61 0 11.22 0 17 0 C17.66 5.61 18.32 11.22 19 17 C10.68976864 21.03290639 10.68976864 21.03290639 7.87109375 20.8984375 C3.82448449 18.95538921 2.45648078 14.0025844 1 10 C0.36686958 6.60954074 0.14830732 3.46050406 0 0 Z " fill="#FFFFFF" transform="translate(12,52)"/>
<path d="M0 0 C4.55530453 0.53591818 7.56736603 2.10029973 12 4 C11.34 9.61 10.68 15.22 10 21 C4.39 21 -1.22 21 -7 21 C-6.68395556 13.62562979 -5.51493723 5.51493723 0 0 Z " fill="#FFFFFF" transform="translate(19,27)"/>
<path d="M0 0 C5.61 0 11.22 0 17 0 C14.91590494 13.89396709 14.91590494 13.89396709 11 19 C9.1953125 20.33203125 9.1953125 20.33203125 7 21 C4.421875 20.3203125 4.421875 20.3203125 1.75 19.125 C0.85796875 18.73570313 -0.0340625 18.34640625 -0.953125 17.9453125 C-1.62859375 17.63335937 -2.3040625 17.32140625 -3 17 C-2.69188262 14.54104382 -2.37871012 12.08291693 -2.0625 9.625 C-1.97548828 8.92632812 -1.88847656 8.22765625 -1.79882812 7.5078125 C-1.11328125 2.2265625 -1.11328125 2.2265625 0 0 Z " fill="#FFFFFF" transform="translate(72,52)"/>
<path d="M0 0 C3.9730452 5.4177889 7 13.1889846 7 20 C1.39 20 -4.22 20 -10 20 C-11.51515517 16.96968967 -11.64824641 13.7013029 -12.0625 10.375 C-12.15337891 9.66859375 -12.24425781 8.9621875 -12.33789062 8.234375 C-12.56183119 6.4899959 -12.78133818 4.74504866 -13 3 C-11.5903653 2.29819469 -10.17192359 1.61406042 -8.75 0.9375 C-7.96109375 0.55464844 -7.1721875 0.17179687 -6.359375 -0.22265625 C-3.68843344 -1.1026519 -2.56093404 -1.1139244 0 0 Z " fill="#FFFFFF" transform="translate(82,28)"/>
<path d="M0 0 C5.61 0 11.22 0 17 0 C17 4.95 17 9.9 17 15 C12.05 15.33 7.1 15.66 2 16 C0.19019666 9.66568832 -0.19329322 6.28202978 0 0 Z " fill="#FFFFFF" transform="translate(32,52)"/>
<path d="M0 0 C4.95 0.33 9.9 0.66 15 1 C15 5.95 15 10.9 15 16 C9.39 16 3.78 16 -2 16 C-2.19329322 9.71797022 -1.80980334 6.33431168 0 0 Z " fill="#FFFFFF" transform="translate(34,32)"/>
<path d="M0 0 C5.61 0 11.22 0 17 0 C16.34 5.28 15.68 10.56 15 16 C10.05 15.67 5.1 15.34 0 15 C0 10.05 0 5.1 0 0 Z " fill="#FFFFFF" transform="translate(52,52)"/>
<path d="M0 0 C0.66 5.28 1.32 10.56 2 16 C-3.61 16 -9.22 16 -15 16 C-15 11.05 -15 6.1 -15 1 C-9.92982987 0.45918185 -5.10415411 0 0 0 Z " fill="#FFFFFF" transform="translate(67,32)"/>
<path d="M0 0 C1.5675 0.020625 3.135 0.04125 4.75 0.0625 C4.75 6.0025 4.75 11.9425 4.75 18.0625 C-0.76629343 16.95924131 -1.60846623 16.25245553 -4.890625 12.18359375 C-7.10770531 8.72418396 -8.22762622 5.01747226 -9.25 1.0625 C-6.09493858 0.12630187 -3.28413498 -0.0432123 0 0 Z " fill="#FFFFFF" transform="translate(44.25,69.9375)"/>
<path d="M0 0 C0 5.94 0 11.88 0 18 C-1.5675 18.020625 -3.135 18.04125 -4.75 18.0625 C-6.07257812 18.07990234 -6.07257812 18.07990234 -7.421875 18.09765625 C-9.7818838 18.00826198 -11.74498524 17.66912821 -14 17 C-12.30745791 10.45253456 -9.98173091 5.66256709 -5 1 C-3 0 -3 0 0 0 Z " fill="#FFFFFF" transform="translate(49,12)"/>
<path d="M0 0 C9 0 9 0 13 1 C12.66093195 7.78136095 8.74503142 11.83539124 4.4921875 16.73828125 C3 18 3 18 0 18 C0 12.06 0 6.12 0 0 Z " fill="#FFFFFF" transform="translate(52,70)"/>
<path d="M0 0 C5.51632189 1.37908047 7.66769393 4.55972314 11 9 C12.58052188 12.09232541 13 13.53772868 13 17 C9 18 9 18 0 18 C0 12.06 0 6.12 0 0 Z " fill="#FFFFFF" transform="translate(52,12)"/>
<path d="M0 0 C1.640625 2.65234375 1.640625 2.65234375 3.25 5.9375 C3.79140625 7.01902344 4.3328125 8.10054687 4.890625 9.21484375 C5.25671875 10.13394531 5.6228125 11.05304688 6 12 C5.67 12.66 5.34 13.32 5 14 C-0.93782498 11.24231448 -6.28099671 8.59481899 -11 4 C-11 3.34 -11 2.68 -11 2 C-9.73392393 1.46770674 -8.46189588 0.94955456 -7.1875 0.4375 C-6.47980469 0.14746094 -5.77210937 -0.14257812 -5.04296875 -0.44140625 C-3 -1 -3 -1 0 0 Z " fill="#FFFFFF" transform="translate(33,73)"/>
<path d="M0 0 C0.33 0.66 0.66 1.32 1 2 C-0.07674702 4.28258633 -1.19546116 6.4356434 -2.4375 8.625 C-2.77587891 9.23601563 -3.11425781 9.84703125 -3.46289062 10.4765625 C-4.30146192 11.988353 -5.14982577 13.49470399 -6 15 C-9.3 14.01 -12.6 13.02 -16 12 C-14.00262377 8.00524755 -13.24663039 7.16002152 -9.6875 4.875 C-8.92824219 4.37742187 -8.16898438 3.87984375 -7.38671875 3.3671875 C-4.98435838 1.99103999 -2.59221075 0.96347656 0 0 Z " fill="#FFFFFF" transform="translate(38,13)"/>
<path d="M0 0 C3.71888239 0.50712033 6.73454239 1.11608215 10 3 C7.89157028 8.18135387 3.70467576 10.32062017 -1 13 C-4.5625 14.375 -4.5625 14.375 -7 15 C-5.63408831 11.45756548 -4.09068516 8.07372071 -2.375 4.6875 C-1.70597656 3.36298828 -1.70597656 3.36298828 -1.0234375 2.01171875 C-0.68570313 1.34785156 -0.34796875 0.68398437 0 0 Z " fill="#FFFFFF" transform="translate(68,72)"/>
<path d="M0 0 C5.65879917 1.45097415 10.5345458 4.26688029 15 8 C16.265625 10.1953125 16.265625 10.1953125 17 12 C10.375 15 10.375 15 7 15 C6.01836578 13.06374902 5.03977546 11.12595461 4.0625 9.1875 C3.51722656 8.10855469 2.97195312 7.02960937 2.41015625 5.91796875 C1 3 1 3 0 0 Z " fill="#FFFFFF" transform="translate(61,13)"/>
</svg>
